# This file uses centimeters as units for non-parametric coordinates.

mtllib cube11.mtl
v -5.500000 -5.500000 5.500000
v 5.500000 -5.500000 5.500000
v 5.500000 0.000000 5.500000
v -5.500000 5.500000 5.500000
v 5.500000 5.500000 5.500000
v -5.500000 5.500000 0.000000
v -5.500000 5.500000 -5.500000
v 5.500000 5.500000 -5.500000
v -5.500000 -5.500000 -5.500000
v 0.000000 -5.500000 -5.500000
v 5.500000 -5.500000 -5.500000
vt 0.375000 0.000000
vt 0.625000 0.000000
vt 0.625000 0.125000
vt 0.375000 0.250000
vt 0.625000 0.250000
vt 0.375000 0.375000
vt 0.375000 0.500000
vt 0.625000 0.500000
vt 0.375000 0.750000
vt 0.500000 0.750000
vt 0.625000 0.750000
vt 0.375000 1.000000
vt 0.625000 1.000000
vt 0.875000 0.000000
vt 0.875000 0.250000
vt 0.125000 0.000000
vt 0.125000 0.250000
vt 0.250000 0.250000
vn 0.000000 0.000000 1.000000
vn 0.000000 0.000000 1.000000
vn 0.000000 0.000000 1.000000
vn 0.000000 0.000000 1.000000
vn 0.000000 0.000000 1.000000
vn 0.000000 1.000000 0.000000
vn 0.000000 1.000000 0.000000
vn 0.000000 1.000000 0.000000
vn 0.000000 1.000000 0.000000
vn 0.000000 1.000000 0.000000
vn 0.000000 0.000000 -1.000000
vn 0.000000 0.000000 -1.000000
vn 0.000000 0.000000 -1.000000
vn 0.000000 0.000000 -1.000000
vn 0.000000 0.000000 -1.000000
vn 0.000000 -1.000000 0.000000
vn 0.000000 -1.000000 0.000000
vn 0.000000 -1.000000 0.000000
vn 0.000000 -1.000000 0.000000
vn 0.000000 -1.000000 0.000000
vn 1.000000 0.000000 0.000000
vn 1.000000 0.000000 0.000000
vn 1.000000 0.000000 0.000000
vn 1.000000 0.000000 0.000000
vn 1.000000 0.000000 0.000000
vn -1.000000 0.000000 0.000000
vn -1.000000 0.000000 0.000000
vn -1.000000 0.000000 0.000000
vn -1.000000 0.000000 0.000000
vn -1.000000 0.000000 0.000000
usemtl initialShadingGroup
f 4/4/1 1/1/2 5/5/3
f 5/5/3 1/1/2 3/3/4
f 1/1/2 2/2/5 3/3/4
f 7/7/6 6/6/7 8/8/8
f 8/8/8 6/6/7 5/5/9
f 6/6/7 4/4/10 5/5/9
f 9/9/11 7/7/12 10/10/13
f 7/7/12 8/8/14 10/10/13
f 10/10/13 8/8/14 11/11/15
f 1/12/16 9/9/17 2/13/18
f 9/9/17 10/10/19 2/13/18
f 10/10/19 11/11/20 2/13/18
f 5/5/21 3/3/22 8/15/23
f 8/15/23 3/3/22 11/14/24
f 3/3/22 2/2/25 11/14/24
f 7/17/26 9/16/27 6/18/28
f 9/16/27 1/1/29 6/18/28
f 6/18/28 1/1/29 4/4/30
